<mxfile host="app.diagrams.net" modified="2022-05-04T01:30:33.454Z" agent="5.0 (Windows NT 10.0; Win64; x64) AppleWebKit/537.36 (KHTML, like Gecko) Chrome/101.0.4951.54 Safari/537.36" etag="eXm207322tz8iyQNHY6M" version="17.4.6" type="github">
  <diagram id="C5RBs43oDa-KdzZeNtuy" name="Page-1">
    <mxGraphModel dx="1984" dy="632" grid="1" gridSize="10" guides="1" tooltips="1" connect="1" arrows="1" fold="1" page="1" pageScale="1" pageWidth="827" pageHeight="1169" math="0" shadow="0">
      <root>
        <mxCell id="WIyWlLk6GJQsqaUBKTNV-0" />
        <mxCell id="WIyWlLk6GJQsqaUBKTNV-1" parent="WIyWlLk6GJQsqaUBKTNV-0" />
        <mxCell id="bsvvh34VxFHOaRpJ6XTc-51" value="" style="rounded=0;html=1;jettySize=auto;orthogonalLoop=1;fontSize=11;endArrow=block;endFill=0;endSize=8;strokeWidth=1;shadow=0;labelBackgroundColor=none;edgeStyle=orthogonalEdgeStyle;strokeColor=#006658;fontColor=#5C5C5C;" edge="1" parent="WIyWlLk6GJQsqaUBKTNV-1" target="bsvvh34VxFHOaRpJ6XTc-54">
          <mxGeometry relative="1" as="geometry">
            <mxPoint x="-480" y="110" as="sourcePoint" />
          </mxGeometry>
        </mxCell>
        <mxCell id="bsvvh34VxFHOaRpJ6XTc-52" value="SI" style="rounded=0;html=1;jettySize=auto;orthogonalLoop=1;fontSize=11;endArrow=block;endFill=0;endSize=8;strokeWidth=1;shadow=0;labelBackgroundColor=none;edgeStyle=orthogonalEdgeStyle;strokeColor=#006658;fontColor=#5C5C5C;" edge="1" parent="WIyWlLk6GJQsqaUBKTNV-1" source="bsvvh34VxFHOaRpJ6XTc-54">
          <mxGeometry y="20" relative="1" as="geometry">
            <mxPoint as="offset" />
            <mxPoint x="-480" y="300" as="targetPoint" />
          </mxGeometry>
        </mxCell>
        <mxCell id="bsvvh34VxFHOaRpJ6XTc-53" value="No" style="edgeStyle=orthogonalEdgeStyle;rounded=0;html=1;jettySize=auto;orthogonalLoop=1;fontSize=11;endArrow=block;endFill=0;endSize=8;strokeWidth=1;shadow=0;labelBackgroundColor=none;strokeColor=#006658;fontColor=#5C5C5C;" edge="1" parent="WIyWlLk6GJQsqaUBKTNV-1" source="bsvvh34VxFHOaRpJ6XTc-54" target="bsvvh34VxFHOaRpJ6XTc-55">
          <mxGeometry y="10" relative="1" as="geometry">
            <mxPoint as="offset" />
          </mxGeometry>
        </mxCell>
        <mxCell id="bsvvh34VxFHOaRpJ6XTc-54" value="La ruta es absoluta?" style="rhombus;whiteSpace=wrap;html=1;shadow=0;fontFamily=Helvetica;fontSize=12;align=center;strokeWidth=1;spacing=6;spacingTop=-4;fillColor=#21C0A5;strokeColor=#006658;fontColor=#FFFFFF;fontStyle=1" vertex="1" parent="WIyWlLk6GJQsqaUBKTNV-1">
          <mxGeometry x="-530" y="160" width="100" height="80" as="geometry" />
        </mxCell>
        <mxCell id="bsvvh34VxFHOaRpJ6XTc-55" value="Convertirla en ruta absoluta" style="rounded=1;whiteSpace=wrap;html=1;fontSize=12;glass=0;strokeWidth=1;shadow=0;fillColor=#21C0A5;strokeColor=#006658;fontColor=#FFFFFF;fontStyle=1" vertex="1" parent="WIyWlLk6GJQsqaUBKTNV-1">
          <mxGeometry x="-710" y="180" width="120" height="40" as="geometry" />
        </mxCell>
        <mxCell id="bsvvh34VxFHOaRpJ6XTc-57" value="Usuario ingresa ruta de archivo&amp;nbsp;y opcion" style="shape=parallelogram;perimeter=parallelogramPerimeter;whiteSpace=wrap;html=1;fixedSize=1;fillColor=#21C0A5;strokeColor=#006658;fontColor=#FFFFFF;fontStyle=1" vertex="1" parent="WIyWlLk6GJQsqaUBKTNV-1">
          <mxGeometry x="-560" y="50" width="160" height="60" as="geometry" />
        </mxCell>
        <mxCell id="bsvvh34VxFHOaRpJ6XTc-58" value="" style="endArrow=classic;html=1;rounded=0;exitX=0.333;exitY=1;exitDx=0;exitDy=0;exitPerimeter=0;entryX=0;entryY=0.5;entryDx=0;entryDy=0;strokeColor=#006658;fontColor=#5C5C5C;" edge="1" parent="WIyWlLk6GJQsqaUBKTNV-1" source="bsvvh34VxFHOaRpJ6XTc-55" target="bsvvh34VxFHOaRpJ6XTc-65">
          <mxGeometry width="50" height="50" relative="1" as="geometry">
            <mxPoint x="-680" y="320" as="sourcePoint" />
            <mxPoint x="-530" y="320" as="targetPoint" />
            <Array as="points">
              <mxPoint x="-670" y="350" />
            </Array>
          </mxGeometry>
        </mxCell>
        <mxCell id="bsvvh34VxFHOaRpJ6XTc-59" value="Usuario Ingreso opcion?" style="rhombus;whiteSpace=wrap;html=1;shadow=0;fontFamily=Helvetica;fontSize=12;align=center;strokeWidth=1;spacing=6;spacingTop=-4;fillColor=#21C0A5;strokeColor=#006658;fontColor=#FFFFFF;fontStyle=1" vertex="1" parent="WIyWlLk6GJQsqaUBKTNV-1">
          <mxGeometry x="-195" y="310" width="130" height="80" as="geometry" />
        </mxCell>
        <mxCell id="bsvvh34VxFHOaRpJ6XTc-60" value="obtener links del archivo" style="rounded=1;whiteSpace=wrap;html=1;fontSize=12;glass=0;strokeWidth=1;shadow=0;fillColor=#21C0A5;strokeColor=#006658;fontColor=#FFFFFF;" vertex="1" parent="WIyWlLk6GJQsqaUBKTNV-1">
          <mxGeometry x="-360" y="330" width="120" height="40" as="geometry" />
        </mxCell>
        <mxCell id="bsvvh34VxFHOaRpJ6XTc-61" value="" style="endArrow=classic;html=1;rounded=0;exitX=0.955;exitY=0.5;exitDx=0;exitDy=0;exitPerimeter=0;strokeColor=#006658;fontColor=#5C5C5C;" edge="1" parent="WIyWlLk6GJQsqaUBKTNV-1" source="bsvvh34VxFHOaRpJ6XTc-65">
          <mxGeometry width="50" height="50" relative="1" as="geometry">
            <mxPoint x="-420" y="350" as="sourcePoint" />
            <mxPoint x="-360" y="350" as="targetPoint" />
            <Array as="points" />
          </mxGeometry>
        </mxCell>
        <mxCell id="bsvvh34VxFHOaRpJ6XTc-62" value="Validar links" style="rounded=1;whiteSpace=wrap;html=1;fillColor=#21C0A5;strokeColor=#006658;fontColor=#FFFFFF;fontStyle=1" vertex="1" parent="WIyWlLk6GJQsqaUBKTNV-1">
          <mxGeometry x="-15" y="563" width="100" height="40" as="geometry" />
        </mxCell>
        <mxCell id="bsvvh34VxFHOaRpJ6XTc-63" value="" style="endArrow=classic;html=1;rounded=0;strokeColor=#006658;fontColor=#5C5C5C;" edge="1" parent="WIyWlLk6GJQsqaUBKTNV-1">
          <mxGeometry width="50" height="50" relative="1" as="geometry">
            <mxPoint x="-239" y="350" as="sourcePoint" />
            <mxPoint x="-190" y="350" as="targetPoint" />
          </mxGeometry>
        </mxCell>
        <mxCell id="bsvvh34VxFHOaRpJ6XTc-64" style="edgeStyle=orthogonalEdgeStyle;rounded=0;orthogonalLoop=1;jettySize=auto;html=1;exitX=0.5;exitY=1;exitDx=0;exitDy=0;strokeColor=#006658;fontColor=#5C5C5C;" edge="1" parent="WIyWlLk6GJQsqaUBKTNV-1" source="bsvvh34VxFHOaRpJ6XTc-65" target="bsvvh34VxFHOaRpJ6XTc-66">
          <mxGeometry relative="1" as="geometry">
            <mxPoint x="-480" y="450" as="targetPoint" />
          </mxGeometry>
        </mxCell>
        <mxCell id="bsvvh34VxFHOaRpJ6XTc-65" value="El archivo es md?" style="rhombus;whiteSpace=wrap;html=1;fillColor=#21C0A5;strokeColor=#006658;fontColor=#FFFFFF;fontStyle=1" vertex="1" parent="WIyWlLk6GJQsqaUBKTNV-1">
          <mxGeometry x="-535" y="300" width="110" height="100" as="geometry" />
        </mxCell>
        <mxCell id="bsvvh34VxFHOaRpJ6XTc-66" value="Mensaje:&lt;br&gt;&quot;formato de archivo es invalido&quot;" style="shape=parallelogram;perimeter=parallelogramPerimeter;whiteSpace=wrap;html=1;fixedSize=1;fillColor=#21C0A5;strokeColor=#006658;fontColor=#FFFFFF;fontStyle=1" vertex="1" parent="WIyWlLk6GJQsqaUBKTNV-1">
          <mxGeometry x="-560" y="450" width="160" height="60" as="geometry" />
        </mxCell>
        <mxCell id="bsvvh34VxFHOaRpJ6XTc-67" value="No" style="text;html=1;strokeColor=none;fillColor=none;align=center;verticalAlign=middle;whiteSpace=wrap;rounded=0;fontColor=#5C5C5C;fontStyle=1" vertex="1" parent="WIyWlLk6GJQsqaUBKTNV-1">
          <mxGeometry x="-535" y="400" width="60" height="30" as="geometry" />
        </mxCell>
        <mxCell id="bsvvh34VxFHOaRpJ6XTc-68" value="" style="endArrow=none;html=1;rounded=0;strokeColor=#006658;fontColor=#5C5C5C;" edge="1" parent="WIyWlLk6GJQsqaUBKTNV-1">
          <mxGeometry width="50" height="50" relative="1" as="geometry">
            <mxPoint x="-130" y="420" as="sourcePoint" />
            <mxPoint x="-130.5" y="390" as="targetPoint" />
          </mxGeometry>
        </mxCell>
        <mxCell id="bsvvh34VxFHOaRpJ6XTc-69" value="Stats" style="rounded=1;whiteSpace=wrap;html=1;fillColor=#21C0A5;strokeColor=#006658;fontColor=#FFFFFF;fontStyle=1" vertex="1" parent="WIyWlLk6GJQsqaUBKTNV-1">
          <mxGeometry x="-356" y="470" width="90" height="40" as="geometry" />
        </mxCell>
        <mxCell id="bsvvh34VxFHOaRpJ6XTc-70" value="Validate y stats" style="rounded=1;whiteSpace=wrap;html=1;fillColor=#21C0A5;strokeColor=#006658;fontColor=#FFFFFF;fontStyle=1" vertex="1" parent="WIyWlLk6GJQsqaUBKTNV-1">
          <mxGeometry x="-180" y="472.5" width="100" height="40" as="geometry" />
        </mxCell>
        <mxCell id="bsvvh34VxFHOaRpJ6XTc-71" value="Validate: false" style="rounded=1;whiteSpace=wrap;html=1;fillColor=#21C0A5;strokeColor=#006658;fontColor=#FFFFFF;fontStyle=1" vertex="1" parent="WIyWlLk6GJQsqaUBKTNV-1">
          <mxGeometry x="210" y="330" width="100" height="40" as="geometry" />
        </mxCell>
        <mxCell id="bsvvh34VxFHOaRpJ6XTc-72" value="Validate: true" style="rounded=1;whiteSpace=wrap;html=1;fillColor=#21C0A5;strokeColor=#006658;fontColor=#FFFFFF;fontStyle=1" vertex="1" parent="WIyWlLk6GJQsqaUBKTNV-1">
          <mxGeometry x="-10" y="472.5" width="90" height="45" as="geometry" />
        </mxCell>
        <mxCell id="bsvvh34VxFHOaRpJ6XTc-73" value="" style="endArrow=classic;html=1;rounded=0;entryX=0;entryY=0.5;entryDx=0;entryDy=0;strokeColor=#006658;fontColor=#5C5C5C;" edge="1" parent="WIyWlLk6GJQsqaUBKTNV-1" target="bsvvh34VxFHOaRpJ6XTc-71">
          <mxGeometry width="50" height="50" relative="1" as="geometry">
            <mxPoint x="-70" y="350" as="sourcePoint" />
            <mxPoint x="-10" y="349.5" as="targetPoint" />
          </mxGeometry>
        </mxCell>
        <mxCell id="bsvvh34VxFHOaRpJ6XTc-74" value="" style="endArrow=classic;html=1;rounded=0;strokeColor=#006658;fontColor=#5C5C5C;" edge="1" parent="WIyWlLk6GJQsqaUBKTNV-1">
          <mxGeometry width="50" height="50" relative="1" as="geometry">
            <mxPoint x="259.33000000000004" y="370" as="sourcePoint" />
            <mxPoint x="259.83000000000004" y="420" as="targetPoint" />
          </mxGeometry>
        </mxCell>
        <mxCell id="bsvvh34VxFHOaRpJ6XTc-76" value="" style="endArrow=none;html=1;rounded=0;strokeColor=#006658;fontColor=#5C5C5C;" edge="1" parent="WIyWlLk6GJQsqaUBKTNV-1">
          <mxGeometry width="50" height="50" relative="1" as="geometry">
            <mxPoint x="-310" y="420" as="sourcePoint" />
            <mxPoint x="40" y="420" as="targetPoint" />
          </mxGeometry>
        </mxCell>
        <mxCell id="bsvvh34VxFHOaRpJ6XTc-77" value="" style="endArrow=classic;html=1;rounded=0;strokeColor=#006658;fontColor=#5C5C5C;" edge="1" parent="WIyWlLk6GJQsqaUBKTNV-1">
          <mxGeometry width="50" height="50" relative="1" as="geometry">
            <mxPoint x="-310.66999999999996" y="512" as="sourcePoint" />
            <mxPoint x="-310.66999999999996" y="552" as="targetPoint" />
          </mxGeometry>
        </mxCell>
        <mxCell id="bsvvh34VxFHOaRpJ6XTc-78" value="" style="endArrow=classic;html=1;rounded=0;strokeColor=#006658;fontColor=#5C5C5C;" edge="1" parent="WIyWlLk6GJQsqaUBKTNV-1">
          <mxGeometry width="50" height="50" relative="1" as="geometry">
            <mxPoint x="34.33" y="517.5" as="sourcePoint" />
            <mxPoint x="34.83" y="562.5" as="targetPoint" />
          </mxGeometry>
        </mxCell>
        <mxCell id="bsvvh34VxFHOaRpJ6XTc-80" value="" style="endArrow=classic;html=1;rounded=0;strokeColor=#006658;fontColor=#5C5C5C;" edge="1" parent="WIyWlLk6GJQsqaUBKTNV-1">
          <mxGeometry width="50" height="50" relative="1" as="geometry">
            <mxPoint x="-131" y="690" as="sourcePoint" />
            <mxPoint x="-130.67" y="740" as="targetPoint" />
          </mxGeometry>
        </mxCell>
        <mxCell id="bsvvh34VxFHOaRpJ6XTc-83" value="" style="endArrow=classic;html=1;rounded=0;entryX=0.5;entryY=0;entryDx=0;entryDy=0;strokeColor=#006658;fontColor=#5C5C5C;" edge="1" parent="WIyWlLk6GJQsqaUBKTNV-1">
          <mxGeometry width="50" height="50" relative="1" as="geometry">
            <mxPoint x="-310.67" y="420" as="sourcePoint" />
            <mxPoint x="-310" y="470" as="targetPoint" />
          </mxGeometry>
        </mxCell>
        <mxCell id="bsvvh34VxFHOaRpJ6XTc-84" value="" style="endArrow=classic;html=1;rounded=0;entryX=0.5;entryY=0;entryDx=0;entryDy=0;strokeColor=#006658;fontColor=#5C5C5C;" edge="1" parent="WIyWlLk6GJQsqaUBKTNV-1">
          <mxGeometry width="50" height="50" relative="1" as="geometry">
            <mxPoint x="-130" y="420" as="sourcePoint" />
            <mxPoint x="-130" y="472.5" as="targetPoint" />
          </mxGeometry>
        </mxCell>
        <mxCell id="bsvvh34VxFHOaRpJ6XTc-85" value="" style="endArrow=classic;html=1;rounded=0;entryX=0.5;entryY=0;entryDx=0;entryDy=0;strokeColor=#006658;fontColor=#5C5C5C;" edge="1" parent="WIyWlLk6GJQsqaUBKTNV-1">
          <mxGeometry width="50" height="50" relative="1" as="geometry">
            <mxPoint x="39.99999999999994" y="422.5" as="sourcePoint" />
            <mxPoint x="40.670000000000016" y="472.5" as="targetPoint" />
          </mxGeometry>
        </mxCell>
        <mxCell id="bsvvh34VxFHOaRpJ6XTc-91" value="&lt;span&gt;Mostrar resultados&lt;/span&gt;" style="shape=parallelogram;perimeter=parallelogramPerimeter;whiteSpace=wrap;html=1;fixedSize=1;fillColor=#21C0A5;strokeColor=#006658;fontColor=#FFFFFF;fontStyle=1" vertex="1" parent="WIyWlLk6GJQsqaUBKTNV-1">
          <mxGeometry x="-205" y="740" width="150" height="60" as="geometry" />
        </mxCell>
        <mxCell id="bsvvh34VxFHOaRpJ6XTc-92" value="&lt;span&gt;Mostrar links y&lt;br&gt;&amp;nbsp;ruta del archivo&lt;/span&gt;" style="shape=parallelogram;perimeter=parallelogramPerimeter;whiteSpace=wrap;html=1;fixedSize=1;fillColor=#21C0A5;strokeColor=#006658;fontColor=#FFFFFF;fontStyle=1" vertex="1" parent="WIyWlLk6GJQsqaUBKTNV-1">
          <mxGeometry x="190" y="420" width="120" height="60" as="geometry" />
        </mxCell>
        <mxCell id="bsvvh34VxFHOaRpJ6XTc-93" value="Inicio" style="ellipse;whiteSpace=wrap;html=1;fillColor=#21C0A5;strokeColor=#006658;fontColor=#FFFFFF;fontStyle=1" vertex="1" parent="WIyWlLk6GJQsqaUBKTNV-1">
          <mxGeometry x="-280" y="40" width="120" height="80" as="geometry" />
        </mxCell>
        <mxCell id="bsvvh34VxFHOaRpJ6XTc-94" value="" style="endArrow=classic;html=1;rounded=0;entryX=1;entryY=0.5;entryDx=0;entryDy=0;strokeColor=#006658;fontColor=#5C5C5C;" edge="1" parent="WIyWlLk6GJQsqaUBKTNV-1" target="bsvvh34VxFHOaRpJ6XTc-57">
          <mxGeometry width="50" height="50" relative="1" as="geometry">
            <mxPoint x="-280" y="79.33000000000001" as="sourcePoint" />
            <mxPoint x="-390" y="79.33000000000001" as="targetPoint" />
          </mxGeometry>
        </mxCell>
        <mxCell id="bsvvh34VxFHOaRpJ6XTc-96" value="" style="endArrow=classic;html=1;rounded=0;startArrow=none;strokeColor=#006658;fontColor=#5C5C5C;" edge="1" parent="WIyWlLk6GJQsqaUBKTNV-1" source="bsvvh34VxFHOaRpJ6XTc-97">
          <mxGeometry width="50" height="50" relative="1" as="geometry">
            <mxPoint x="259.33000000000004" y="480" as="sourcePoint" />
            <mxPoint x="259" y="780" as="targetPoint" />
          </mxGeometry>
        </mxCell>
        <mxCell id="bsvvh34VxFHOaRpJ6XTc-100" value="" style="endArrow=none;html=1;rounded=0;strokeColor=#006658;fontColor=#5C5C5C;" edge="1" parent="WIyWlLk6GJQsqaUBKTNV-1">
          <mxGeometry width="50" height="50" relative="1" as="geometry">
            <mxPoint x="-312" y="613" as="sourcePoint" />
            <mxPoint x="-312" y="690" as="targetPoint" />
          </mxGeometry>
        </mxCell>
        <mxCell id="bsvvh34VxFHOaRpJ6XTc-101" value="" style="endArrow=none;html=1;rounded=0;strokeColor=#006658;fontColor=#5C5C5C;" edge="1" parent="WIyWlLk6GJQsqaUBKTNV-1">
          <mxGeometry width="50" height="50" relative="1" as="geometry">
            <mxPoint x="31.659999999999982" y="603" as="sourcePoint" />
            <mxPoint x="31" y="690" as="targetPoint" />
          </mxGeometry>
        </mxCell>
        <mxCell id="bsvvh34VxFHOaRpJ6XTc-102" value="" style="endArrow=classic;html=1;rounded=0;entryX=-0.011;entryY=0.617;entryDx=0;entryDy=0;entryPerimeter=0;strokeColor=#006658;fontColor=#5C5C5C;" edge="1" parent="WIyWlLk6GJQsqaUBKTNV-1" target="bsvvh34VxFHOaRpJ6XTc-97">
          <mxGeometry width="50" height="50" relative="1" as="geometry">
            <mxPoint x="-65" y="769.33" as="sourcePoint" />
            <mxPoint x="115" y="769.33" as="targetPoint" />
          </mxGeometry>
        </mxCell>
        <mxCell id="bsvvh34VxFHOaRpJ6XTc-103" value="" style="endArrow=none;html=1;rounded=0;strokeColor=#006658;fontColor=#5C5C5C;" edge="1" parent="WIyWlLk6GJQsqaUBKTNV-1">
          <mxGeometry width="50" height="50" relative="1" as="geometry">
            <mxPoint x="-550" y="480" as="sourcePoint" />
            <mxPoint x="-780" y="480" as="targetPoint" />
          </mxGeometry>
        </mxCell>
        <mxCell id="bsvvh34VxFHOaRpJ6XTc-104" value="" style="endArrow=none;html=1;rounded=0;strokeColor=#006658;fontColor=#5C5C5C;" edge="1" parent="WIyWlLk6GJQsqaUBKTNV-1">
          <mxGeometry width="50" height="50" relative="1" as="geometry">
            <mxPoint x="-780" y="480" as="sourcePoint" />
            <mxPoint x="-780" y="80" as="targetPoint" />
          </mxGeometry>
        </mxCell>
        <mxCell id="bsvvh34VxFHOaRpJ6XTc-105" value="" style="endArrow=classic;html=1;rounded=0;entryX=0;entryY=0.5;entryDx=0;entryDy=0;strokeColor=#006658;fontColor=#5C5C5C;" edge="1" parent="WIyWlLk6GJQsqaUBKTNV-1" target="bsvvh34VxFHOaRpJ6XTc-57">
          <mxGeometry width="50" height="50" relative="1" as="geometry">
            <mxPoint x="-780" y="79.33000000000001" as="sourcePoint" />
            <mxPoint x="-650" y="79.33000000000001" as="targetPoint" />
          </mxGeometry>
        </mxCell>
        <mxCell id="bsvvh34VxFHOaRpJ6XTc-106" value="SI" style="text;html=1;align=center;verticalAlign=middle;resizable=0;points=[];autosize=1;strokeColor=none;fillColor=none;fontColor=#5C5C5C;fontStyle=1" vertex="1" parent="WIyWlLk6GJQsqaUBKTNV-1">
          <mxGeometry x="-413" y="320" width="30" height="20" as="geometry" />
        </mxCell>
        <mxCell id="bsvvh34VxFHOaRpJ6XTc-114" value="SI" style="text;html=1;strokeColor=none;fillColor=none;align=center;verticalAlign=middle;whiteSpace=wrap;rounded=0;fontColor=#5C5C5C;fontStyle=1" vertex="1" parent="WIyWlLk6GJQsqaUBKTNV-1">
          <mxGeometry x="-144" y="385" width="60" height="30" as="geometry" />
        </mxCell>
        <mxCell id="bsvvh34VxFHOaRpJ6XTc-115" value="NO" style="text;html=1;strokeColor=none;fillColor=none;align=center;verticalAlign=middle;whiteSpace=wrap;rounded=0;fontColor=#5C5C5C;fontStyle=1" vertex="1" parent="WIyWlLk6GJQsqaUBKTNV-1">
          <mxGeometry x="-5" y="315" width="60" height="30" as="geometry" />
        </mxCell>
        <mxCell id="bsvvh34VxFHOaRpJ6XTc-119" value="&lt;span&gt;Obtener&lt;/span&gt;&lt;br&gt;&lt;span&gt;estadisticas&lt;/span&gt;" style="rounded=1;whiteSpace=wrap;html=1;fillColor=#21C0A5;strokeColor=#006658;fontColor=#FFFFFF;fontStyle=1" vertex="1" parent="WIyWlLk6GJQsqaUBKTNV-1">
          <mxGeometry x="-371" y="553" width="120" height="65" as="geometry" />
        </mxCell>
        <mxCell id="bsvvh34VxFHOaRpJ6XTc-120" value="" style="endArrow=none;html=1;rounded=0;strokeColor=#006658;fontColor=#5C5C5C;" edge="1" parent="WIyWlLk6GJQsqaUBKTNV-1">
          <mxGeometry width="50" height="50" relative="1" as="geometry">
            <mxPoint x="-312" y="690" as="sourcePoint" />
            <mxPoint x="30" y="690" as="targetPoint" />
          </mxGeometry>
        </mxCell>
        <mxCell id="bsvvh34VxFHOaRpJ6XTc-97" value="FIN" style="ellipse;whiteSpace=wrap;html=1;fillColor=#21C0A5;strokeColor=#006658;fontColor=#FFFFFF;fontStyle=1" vertex="1" parent="WIyWlLk6GJQsqaUBKTNV-1">
          <mxGeometry x="200" y="720" width="120" height="80" as="geometry" />
        </mxCell>
        <mxCell id="bsvvh34VxFHOaRpJ6XTc-122" value="" style="endArrow=classic;html=1;rounded=0;entryX=0.5;entryY=0;entryDx=0;entryDy=0;strokeColor=#006658;fontColor=#5C5C5C;" edge="1" parent="WIyWlLk6GJQsqaUBKTNV-1" target="bsvvh34VxFHOaRpJ6XTc-97">
          <mxGeometry width="50" height="50" relative="1" as="geometry">
            <mxPoint x="260" y="480" as="sourcePoint" />
            <mxPoint x="259.33000000000004" y="618" as="targetPoint" />
          </mxGeometry>
        </mxCell>
        <mxCell id="bsvvh34VxFHOaRpJ6XTc-123" value="" style="endArrow=none;html=1;rounded=0;strokeColor=#006658;fontColor=#5C5C5C;" edge="1" parent="WIyWlLk6GJQsqaUBKTNV-1">
          <mxGeometry width="50" height="50" relative="1" as="geometry">
            <mxPoint x="-131" y="530" as="sourcePoint" />
            <mxPoint x="-130.67000000000002" y="513" as="targetPoint" />
          </mxGeometry>
        </mxCell>
        <mxCell id="bsvvh34VxFHOaRpJ6XTc-124" value="" style="endArrow=none;html=1;rounded=0;strokeColor=#006658;fontColor=#5C5C5C;" edge="1" parent="WIyWlLk6GJQsqaUBKTNV-1">
          <mxGeometry width="50" height="50" relative="1" as="geometry">
            <mxPoint x="-280" y="530" as="sourcePoint" />
            <mxPoint x="10" y="530" as="targetPoint" />
          </mxGeometry>
        </mxCell>
        <mxCell id="bsvvh34VxFHOaRpJ6XTc-125" value="" style="endArrow=classic;html=1;rounded=0;strokeColor=#006658;fontColor=#5C5C5C;" edge="1" parent="WIyWlLk6GJQsqaUBKTNV-1">
          <mxGeometry width="50" height="50" relative="1" as="geometry">
            <mxPoint x="-280" y="530" as="sourcePoint" />
            <mxPoint x="-280" y="555" as="targetPoint" />
          </mxGeometry>
        </mxCell>
        <mxCell id="bsvvh34VxFHOaRpJ6XTc-126" value="" style="endArrow=classic;html=1;rounded=0;strokeColor=#006658;fontColor=#5C5C5C;" edge="1" parent="WIyWlLk6GJQsqaUBKTNV-1">
          <mxGeometry width="50" height="50" relative="1" as="geometry">
            <mxPoint x="10" y="530" as="sourcePoint" />
            <mxPoint x="10" y="560" as="targetPoint" />
          </mxGeometry>
        </mxCell>
      </root>
    </mxGraphModel>
  </diagram>
</mxfile>
